<svg width="221" height="74" viewBox="0 0 221 74" fill="none" xmlns="http://www.w3.org/2000/svg">
<path fill-rule="evenodd" clip-rule="evenodd" d="M170.495 13.5936L180.281 0H201.558V13.5936H211.249L220.94 23.3027V56.3151L203.496 73.7926H155.045L147.293 66.0254V73.7926H122.098L114.346 66.0254V73.7926H62.0188L54.2659 66.0254V73.7926H27.1332L0 46.6065V0H21.3195L31.1056 13.5936H91.0895V0H133.727V13.5936H147.293V19.4188L153.107 13.5936H170.495Z" fill="black"/>
<path fill-rule="evenodd" clip-rule="evenodd" d="M94.9645 13.5932H110.469V3.88354H94.9645V13.5932ZM32.9472 33.0126H19.3806V36.8965H32.9472V52.432H11.6282L3.87646 44.6648V3.88411H19.3806V17.4771H32.9472V33.0126ZM91.0892 52.4321H44.5752L36.8234 44.6643V17.4772H52.3281V36.8966H56.2037V17.4772H71.7078V36.8966H75.584V17.4772H91.0892V52.4321ZM110.469 52.432H94.9645V17.4777H110.469V52.432ZM129.85 33.0126H143.417V17.4771H129.85V3.88411H114.346V44.6648L122.098 52.432H143.417V36.8965H129.85V33.0126ZM178.302 33.0126H162.797V36.8965H178.302V52.432H155.045L147.293 44.6648V25.2449L155.045 17.4771H178.302V33.0126ZM201.559 33.0121V52.4321H217.063V25.2449L209.311 17.4772H197.682V3.8836H182.178V52.4321H197.682V33.0121H201.559Z" fill="white"/>
</svg>
