
<svg width="49px" height="49px" viewBox="0 0 49 49" version="1.1" xmlns="http://www.w3.org/2000/svg" xmlns:xlink="http://www.w3.org/1999/xlink">
    <g id="Landing-Feedback-Exploration-1" stroke="none" stroke-width="1" fill="none" fill-rule="evenodd">
        <g id="V1-Copy" transform="translate(-1272.000000, -241.000000)" fill="#9146FF" fill-rule="nonzero">
            <g id="Group-7" transform="translate(1272.000000, 241.000000)">
                <path d="M19.8529412,-8.8817842e-14 C30.8174178,-8.8817842e-14 39.7058824,8.88846453 39.7058824,19.8529412 C39.7058824,24.3582209 38.2051804,28.5129928 35.6763888,31.8446448 L48.3056263,44.6537604 L44.2716018,48.7189052 L31.5959188,35.8621415 C28.3072442,38.2785011 24.2467841,39.7058824 19.8529412,39.7058824 C8.88846453,39.7058824 -3.55271368e-15,30.8174178 -3.55271368e-15,19.8529412 C-3.55271368e-15,8.88846453 8.88846453,-8.8817842e-14 19.8529412,-8.8817842e-14 Z M19.8529412,5.2244582 C11.7738531,5.2244582 5.2244582,11.7738531 5.2244582,19.8529412 C5.2244582,27.9320292 11.7738531,34.4814241 19.8529412,34.4814241 C27.9320292,34.4814241 34.4814241,27.9320292 34.4814241,19.8529412 C34.4814241,11.7738531 27.9320292,5.2244582 19.8529412,5.2244582 Z" id="Combined-Shape"></path>
            </g>
        </g>
    </g>
</svg>